<svg width="86" height="97" viewBox="0 0 86 97" fill="none" xmlns="http://www.w3.org/2000/svg">
<path d="M65.4695 27.1963H82.6895C83.4083 27.1963 84.0976 27.4818 84.6058 27.9901C85.114 28.4983 85.3995 29.1876 85.3995 29.9063C85.3995 45.413 85.4029 61.1163 85.4095 77.0163C85.4095 90.9963 78.2895 96.1863 64.9995 96.1863C50.3662 96.1863 35.7295 96.193 21.0895 96.2063C6.95953 96.2263 0.179531 90.6863 0.159531 76.1063C0.139531 60.693 0.139531 45.313 0.159531 29.9663C0.159531 29.2317 0.451371 28.5271 0.970847 28.0076C1.49032 27.4882 2.19488 27.1963 2.92953 27.1963H19.9095C20.0509 27.1967 20.1908 27.1679 20.3206 27.1118C20.4503 27.0557 20.5671 26.9735 20.6638 26.8703C20.7604 26.7671 20.8347 26.6452 20.8822 26.512C20.9296 26.3789 20.9491 26.2374 20.9395 26.0963C18.4095 -7.70367 67.6395 -7.55368 64.7695 26.4263C64.7612 26.5246 64.7731 26.6235 64.8045 26.7167C64.836 26.81 64.8862 26.8955 64.952 26.968C65.0179 27.0404 65.0979 27.0981 65.187 27.1374C65.2761 27.1768 65.3723 27.1968 65.4695 27.1963ZM27.4995 27.1663L58.2195 27.2263C58.4529 27.2263 58.6768 27.1336 58.8418 26.9686C59.0068 26.8035 59.0995 26.5797 59.0995 26.3463L59.1095 23.2863C59.1136 21.0853 58.7012 18.905 57.8958 16.87C57.0904 14.835 55.9078 12.9851 54.4156 11.426C52.9233 9.86691 51.1506 8.6291 49.1987 7.78325C47.2468 6.93741 45.1539 6.50011 43.0395 6.49632H42.7595C38.4897 6.48865 34.3916 8.24694 31.3667 11.3844C28.3418 14.5218 26.6378 18.7815 26.6295 23.2263L26.6195 26.2863C26.6195 26.5197 26.7122 26.7435 26.8773 26.9086C27.0423 27.0736 27.2661 27.1663 27.4995 27.1663ZM61.5395 43.1463C60.8854 43.0796 60.2793 42.7739 59.8379 42.2883C59.3966 41.8026 59.1513 41.1713 59.1495 40.5163L59.1395 33.5963C59.1395 33.4239 59.0711 33.2586 58.9492 33.1367C58.8273 33.0148 58.6619 32.9463 58.4895 32.9463H27.3795C26.9262 32.9463 26.6929 33.173 26.6795 33.6263C26.5995 35.9663 27.9395 46.3363 21.7595 42.4863C21.4965 42.3209 21.2797 42.092 21.1294 41.821C20.979 41.5499 20.8999 41.2456 20.8995 40.9363V33.5663C20.8995 33.153 20.6895 32.9463 20.2695 32.9463H6.94953C6.26953 32.9463 5.92953 33.2863 5.92953 33.9663C5.92286 48.0397 5.95286 61.153 6.01953 73.3063C6.08953 85.9763 7.86953 90.3863 21.6495 90.4763C37.0562 90.563 52.4629 90.4963 67.8695 90.2763C76.2595 90.1463 79.5995 85.3363 79.6295 77.1663C79.6829 62.613 79.6795 48.0363 79.6195 33.4363C79.6195 33.3064 79.5679 33.1817 79.476 33.0898C79.3841 32.998 79.2595 32.9463 79.1295 32.9463H65.6295C65.1762 32.9463 64.9395 33.1763 64.9195 33.6363C64.8295 36.3763 66.2395 43.6263 61.5395 43.1463Z" fill="black"/>
</svg>
