<?xml version="1.0" encoding="UTF-8" standalone="no"?>
<!DOCTYPE svg PUBLIC "-//W3C//DTD SVG 1.1//EN" "http://www.w3.org/Graphics/SVG/1.1/DTD/svg11.dtd">
<svg xmlns="http://www.w3.org/2000/svg" version="1.1" viewBox="0.00 0.00 220.00 212.00">
<g stroke-width="2.00" fill="none" stroke-linecap="butt">
<path stroke="#7f6e31" vector-effect="non-scaling-stroke" d="
  M 144.45 113.99
  A 0.21 0.21 0.0 0 1 144.32 113.60
  Q 159.49 106.54 166.34 91.27
  Q 166.56 90.79 167.09 90.87
  C 175.28 92.10 188.09 93.47 192.48 83.79
  Q 192.70 83.30 192.41 82.85
  Q 191.04 80.74 190.58 78.31
  Q 190.49 77.78 190.13 77.38
  C 185.22 71.80 182.21 66.77 173.75 65.44
  Q 173.18 65.35 173.37 64.80
  C 180.56 44.57 177.02 22.12 159.50 8.33
  A 0.62 0.61 29.9 0 0 158.55 8.58
  Q 153.73 20.86 155.13 33.98
  Q 155.19 34.52 155.53 34.95
  Q 166.13 48.27 168.30 65.27
  A 0.72 0.71 32.6 0 1 166.91 65.57
  Q 165.42 60.93 163.76 56.36
  Q 153.06 26.88 122.23 16.46
  Q 120.77 15.97 121.01 17.48
  Q 122.92 29.45 128.50 40.16
  A 0.24 0.24 0.0 0 0 128.95 39.98
  Q 127.09 33.50 127.11 26.74
  A 0.75 0.75 0.0 0 1 128.09 26.03
  Q 156.43 34.98 163.19 63.99
  A 0.51 0.50 27.5 0 1 162.23 64.29
  C 155.48 47.64 148.07 36.23 130.33 29.77
  A 0.39 0.39 0.0 0 0 129.81 30.17
  C 131.72 48.93 144.57 61.94 161.58 68.50
  A 0.63 0.62 -57.3 0 1 161.80 69.52
  Q 157.35 74.09 157.18 80.51
  A 0.83 0.82 -12.4 0 1 156.73 81.21
  C 142.88 88.25 126.96 79.19 112.77 82.31
  C 96.22 85.94 83.04 102.69 91.25 119.53
  C 96.31 129.90 105.19 135.76 113.58 142.65
  Q 117.92 146.22 116.88 151.61
  Q 116.79 152.08 116.41 152.37
  L 111.19 156.33
  A 2.22 2.22 0.0 0 0 111.28 159.93
  C 117.76 164.37 122.85 168.50 124.59 176.67
  A 0.46 0.46 0.0 0 0 125.43 176.82
  C 129.43 170.32 126.10 163.55 120.70 159.26
  C 115.46 155.08 126.44 150.39 128.80 147.55
  Q 131.88 143.84 131.59 139.22
  Q 130.57 122.95 116.86 112.41
  Q 114.39 110.51 112.18 108.82
  A 0.38 0.38 0.0 0 1 112.55 108.16
  Q 120.91 111.31 127.35 117.46
  A 0.48 0.47 34.4 0 0 128.11 117.32
  Q 134.08 104.75 147.00 99.51
  A 0.22 0.22 0.0 0 1 147.21 99.90
  C 142.01 103.23 129.79 116.44 133.83 123.30
  Q 134.09 123.74 134.60 123.75
  C 142.13 123.80 153.44 113.70 159.96 119.54
  C 160.90 120.38 161.38 121.91 162.32 122.97
  Q 162.71 123.40 163.18 123.06
  C 166.91 120.30 165.95 116.12 161.98 114.30
  C 155.72 111.42 150.85 112.53 144.45 113.99"
/>
<path stroke="#7f6e31" vector-effect="non-scaling-stroke" d="
  M 83.90 100.53
  C 83.12 93.43 72.97 90.28 67.20 91.39
  A 1.37 1.35 -77.4 0 0 66.34 91.94
  Q 64.58 94.41 65.31 97.72
  Q 68.54 112.54 83.95 110.48
  Q 84.48 110.41 84.47 109.89
  Q 84.39 105.10 83.90 100.53"
/>
<path stroke="#7f6e31" vector-effect="non-scaling-stroke" d="
  M 180.41 75.91
  C 178.69 72.66 173.64 72.80 171.58 75.42
  A 0.70 0.69 13.6 0 0 172.26 76.53
  Q 176.03 75.81 179.74 76.76
  A 0.59 0.59 0.0 0 0 180.41 75.91"
/>
</g>
<path fill="#000000" d="
  M 152.02 29.80
  Q 151.74 16.74 157.41 4.96
  A 1.26 1.26 0.0 0 1 159.38 4.56
  Q 185.73 27.80 176.09 62.48
  A 1.67 1.66 20.0 0 0 177.01 64.45
  Q 183.50 67.39 188.64 73.12
  C 190.06 74.70 194.99 76.85 195.26 79.62
  C 195.60 83.06 192.32 87.65 189.95 89.75
  C 185.20 93.95 177.77 94.38 171.50 93.89
  C 169.60 93.74 168.41 94.35 167.48 96.11
  Q 163.71 103.33 157.22 108.37
  A 1.42 1.42 0.0 0 0 158.03 110.92
  C 165.41 111.22 172.47 120.28 163.96 125.40
  A 0.91 0.90 -55.0 0 1 163.34 125.51
  L 159.99 124.94
  Q 159.37 124.83 158.88 125.21
  C 154.19 128.79 155.13 142.68 156.00 147.81
  A 1.10 1.10 0.0 0 0 157.50 148.64
  Q 165.70 145.26 174.91 146.93
  C 207.66 152.88 212.51 196.50 182.04 209.96
  C 176.81 212.27 169.86 211.52 164.21 211.32
  Q 159.55 211.16 156.18 209.69
  C 132.01 199.13 130.02 167.16 150.86 152.07
  A 2.48 2.47 67.9 0 0 151.86 149.70
  L 151.18 145.03
  A 1.37 1.37 0.0 0 0 149.11 144.06
  Q 137.19 151.43 126.12 160.08
  A 1.44 1.44 0.0 0 0 125.89 162.12
  Q 131.08 168.47 128.06 176.71
  Q 126.80 180.15 123.33 179.27
  A 0.92 0.92 0.0 0 1 122.65 178.48
  Q 122.21 173.99 119.87 170.20
  A 1.18 1.18 0.0 0 0 117.91 170.14
  Q 116.14 172.60 113.03 171.94
  A 1.44 1.43 34.6 0 0 111.97 172.13
  Q 108.76 174.14 111.04 177.17
  Q 111.36 177.59 111.40 178.12
  C 112.13 188.41 100.40 194.15 93.89 185.72
  C 93.05 184.62 92.61 182.82 91.63 181.46
  A 1.10 1.09 71.9 0 0 90.74 181.00
  L 82.73 181.00
  Q 82.10 181.00 82.00 181.63
  Q 78.92 202.61 60.29 210.01
  C 55.45 211.93 50.11 211.53 44.90 211.37
  C 27.80 210.85 14.55 193.08 15.91 176.56
  C 18.28 147.77 51.57 136.82 72.42 155.59
  A 1.65 1.65 0.0 0 0 74.59 155.62
  L 89.73 142.73
  A 2.57 2.57 0.0 0 0 90.56 140.23
  L 88.11 129.39
  A 1.87 1.86 86.1 0 0 86.46 127.94
  C 83.21 127.63 75.32 128.37 75.03 124.00
  C 74.74 119.51 82.05 118.38 85.13 118.81
  A 1.11 1.11 0.0 0 0 86.36 117.45
  L 85.44 113.59
  A 0.80 0.80 0.0 0 0 84.50 112.99
  C 71.35 115.75 60.05 105.85 62.70 92.22
  Q 63.18 89.73 65.96 89.11
  Q 77.78 86.49 86.46 94.52
  A 1.13 1.12 -49.2 0 0 88.10 94.39
  C 94.91 85.80 103.79 80.95 114.93 79.61
  C 127.87 78.05 139.43 82.83 152.23 80.29
  C 156.16 79.51 156.44 74.30 157.77 71.11
  A 1.88 1.87 23.5 0 0 156.81 68.68
  Q 121.32 52.59 117.23 13.26
  Q 117.14 12.43 117.97 12.28
  Q 119.02 12.10 120.43 12.57
  Q 137.65 18.28 150.69 30.40
  A 0.79 0.79 0.0 0 0 152.02 29.80
  Z
  M 144.45 113.99
  A 0.21 0.21 0.0 0 1 144.32 113.60
  Q 159.49 106.54 166.34 91.27
  Q 166.56 90.79 167.09 90.87
  C 175.28 92.10 188.09 93.47 192.48 83.79
  Q 192.70 83.30 192.41 82.85
  Q 191.04 80.74 190.58 78.31
  Q 190.49 77.78 190.13 77.38
  C 185.22 71.80 182.21 66.77 173.75 65.44
  Q 173.18 65.35 173.37 64.80
  C 180.56 44.57 177.02 22.12 159.50 8.33
  A 0.62 0.61 29.9 0 0 158.55 8.58
  Q 153.73 20.86 155.13 33.98
  Q 155.19 34.52 155.53 34.95
  Q 166.13 48.27 168.30 65.27
  A 0.72 0.71 32.6 0 1 166.91 65.57
  Q 165.42 60.93 163.76 56.36
  Q 153.06 26.88 122.23 16.46
  Q 120.77 15.97 121.01 17.48
  Q 122.92 29.45 128.50 40.16
  A 0.24 0.24 0.0 0 0 128.95 39.98
  Q 127.09 33.50 127.11 26.74
  A 0.75 0.75 0.0 0 1 128.09 26.03
  Q 156.43 34.98 163.19 63.99
  A 0.51 0.50 27.5 0 1 162.23 64.29
  C 155.48 47.64 148.07 36.23 130.33 29.77
  A 0.39 0.39 0.0 0 0 129.81 30.17
  C 131.72 48.93 144.57 61.94 161.58 68.50
  A 0.63 0.62 -57.3 0 1 161.80 69.52
  Q 157.35 74.09 157.18 80.51
  A 0.83 0.82 -12.4 0 1 156.73 81.21
  C 142.88 88.25 126.96 79.19 112.77 82.31
  C 96.22 85.94 83.04 102.69 91.25 119.53
  C 96.31 129.90 105.19 135.76 113.58 142.65
  Q 117.92 146.22 116.88 151.61
  Q 116.79 152.08 116.41 152.37
  L 111.19 156.33
  A 2.22 2.22 0.0 0 0 111.28 159.93
  C 117.76 164.37 122.85 168.50 124.59 176.67
  A 0.46 0.46 0.0 0 0 125.43 176.82
  C 129.43 170.32 126.10 163.55 120.70 159.26
  C 115.46 155.08 126.44 150.39 128.80 147.55
  Q 131.88 143.84 131.59 139.22
  Q 130.57 122.95 116.86 112.41
  Q 114.39 110.51 112.18 108.82
  A 0.38 0.38 0.0 0 1 112.55 108.16
  Q 120.91 111.31 127.35 117.46
  A 0.48 0.47 34.4 0 0 128.11 117.32
  Q 134.08 104.75 147.00 99.51
  A 0.22 0.22 0.0 0 1 147.21 99.90
  C 142.01 103.23 129.79 116.44 133.83 123.30
  Q 134.09 123.74 134.60 123.75
  C 142.13 123.80 153.44 113.70 159.96 119.54
  C 160.90 120.38 161.38 121.91 162.32 122.97
  Q 162.71 123.40 163.18 123.06
  C 166.91 120.30 165.95 116.12 161.98 114.30
  C 155.72 111.42 150.85 112.53 144.45 113.99
  Z
  M 83.90 100.53
  C 83.12 93.43 72.97 90.28 67.20 91.39
  A 1.37 1.35 -77.4 0 0 66.34 91.94
  Q 64.58 94.41 65.31 97.72
  Q 68.54 112.54 83.95 110.48
  Q 84.48 110.41 84.47 109.89
  Q 84.39 105.10 83.90 100.53
  Z
  M 150.03 129.74
  C 153.31 129.35 152.75 123.51 151.92 121.98
  Q 150.91 120.10 149.16 121.31
  Q 142.29 126.06 133.97 127.39
  Q 133.00 127.54 133.35 128.46
  L 134.67 131.94
  Q 134.88 132.49 135.46 132.39
  C 140.31 131.56 145.19 130.31 150.03 129.74
  Z
  M 101.71 136.86
  C 99.42 135.62 96.70 132.86 94.37 131.08
  A 0.84 0.84 0.0 0 0 93.05 131.96
  L 94.84 138.79
  A 1.35 1.34 -12.0 0 0 96.36 139.77
  L 101.61 138.88
  A 0.88 0.88 0.0 0 0 102.33 138.19
  Q 102.53 137.30 101.71 136.86
  Z
  M 150.62 133.03
  Q 149.69 132.62 149.00 132.75
  Q 142.49 133.97 135.88 135.11
  A 1.33 1.32 81.8 0 0 134.79 136.58
  Q 135.71 144.16 130.49 149.39
  C 128.59 151.29 122.59 154.05 122.02 156.41
  A 1.48 1.48 0.0 0 0 123.82 158.19
  C 124.84 157.94 125.80 156.83 126.42 156.36
  Q 137.52 147.79 149.60 140.58
  A 2.10 2.08 -13.0 0 0 150.62 138.96
  L 151.05 133.74
  Q 151.09 133.23 150.62 133.03
  Z
  M 111.90 163.07
  C 107.80 161.22 106.23 157.50 109.89 154.31
  C 112.17 152.33 114.67 150.26 113.46 147.29
  Q 111.53 142.56 106.37 140.58
  Q 105.88 140.39 105.36 140.51
  L 97.09 142.36
  A 1.61 1.61 0.0 0 0 95.87 144.30
  L 101.43 168.67
  A 1.99 1.99 0.0 0 0 102.71 170.09
  L 106.68 171.48
  A 2.43 2.43 0.0 0 0 109.67 170.26
  L 112.45 164.59
  A 1.12 1.12 0.0 0 0 111.90 163.07
  Z
  M 82.84 178.18
  L 90.66 178.28
  A 1.95 1.95 0.0 0 0 92.55 176.90
  Q 93.56 173.61 96.41 171.70
  A 1.78 1.77 -23.3 0 0 97.16 169.83
  L 91.96 146.86
  A 1.20 1.20 0.0 0 0 90.02 146.20
  L 76.11 157.94
  Q 75.66 158.31 75.72 158.90
  C 75.85 160.24 76.83 161.10 77.33 161.99
  Q 81.36 169.16 82.02 177.41
  A 0.85 0.84 -1.5 0 0 82.84 178.18
  Z
  M 74.75 180.88
  Q 64.44 180.60 54.55 180.51
  C 51.75 180.48 50.92 183.17 48.22 182.65
  C 43.41 181.73 44.10 174.23 50.32 175.35
  A 1.27 1.24 29.8 0 0 51.36 175.08
  L 67.63 161.44
  A 1.38 1.37 -44.0 0 0 67.67 159.36
  C 56.50 149.32 37.97 149.13 28.17 161.47
  C 15.56 177.35 23.22 199.64 42.36 204.88
  C 57.99 209.16 74.06 198.15 75.64 181.89
  Q 75.73 180.90 74.75 180.88
  Z
  M 172.79 177.50
  C 175.92 182.24 166.36 186.65 165.38 178.53
  A 2.13 2.10 -67.1 0 0 165.00 177.57
  Q 158.57 168.74 154.41 158.61
  A 1.22 1.22 0.0 0 0 152.46 158.18
  C 143.81 166.15 140.31 176.48 144.07 187.86
  C 149.49 204.27 168.84 211.18 183.67 202.07
  C 203.02 190.19 199.43 161.04 177.99 153.79
  Q 169.00 150.75 159.33 154.20
  A 1.79 1.79 0.0 0 0 158.27 156.54
  Q 162.07 166.17 168.02 174.02
  C 169.40 175.85 171.61 175.70 172.79 177.50
  Z
  M 71.04 163.53
  A 1.08 1.07 51.5 0 0 69.47 163.35
  Q 62.37 169.46 55.22 175.74
  Q 54.66 176.24 54.42 176.62
  A 0.71 0.70 -73.3 0 0 55.00 177.71
  L 74.29 178.11
  A 1.33 1.33 0.0 0 0 75.65 176.72
  Q 75.34 169.41 71.04 163.53
  Z
  M 104.4765 174.6905
  A 0.70 0.53 -5.7 0 0 103.7274 174.2326
  A 0.70 0.53 -5.7 0 0 103.0835 174.8295
  A 0.70 0.53 -5.7 0 0 103.8326 175.2874
  A 0.70 0.53 -5.7 0 0 104.4765 174.6905
  Z
  M 98.58 176.85
  A 1.52 1.52 0.0 0 0 97.06 175.33
  A 1.52 1.52 0.0 0 0 95.54 176.85
  A 1.52 1.52 0.0 0 0 97.06 178.37
  A 1.52 1.52 0.0 0 0 98.58 176.85
  Z
  M 100.77 181.94
  Q 98.47 180.79 95.93 181.47
  Q 95.46 181.60 95.50 182.07
  C 96.18 190.07 111.75 186.83 107.86 177.52
  A 0.99 0.99 0.0 0 0 106.14 177.32
  L 103.25 181.33
  A 1.97 1.97 0.0 0 1 100.77 181.94
  Z"
/>
<path fill="#fedb62" d="
  M 144.45 113.99
  C 150.85 112.53 155.72 111.42 161.98 114.30
  C 165.95 116.12 166.91 120.30 163.18 123.06
  Q 162.71 123.40 162.32 122.97
  C 161.38 121.91 160.90 120.38 159.96 119.54
  C 153.44 113.70 142.13 123.80 134.60 123.75
  Q 134.09 123.74 133.83 123.30
  C 129.79 116.44 142.01 103.23 147.21 99.90
  A 0.22 0.22 0.0 0 0 147.00 99.51
  Q 134.08 104.75 128.11 117.32
  A 0.48 0.47 34.4 0 1 127.35 117.46
  Q 120.91 111.31 112.55 108.16
  A 0.38 0.38 0.0 0 0 112.18 108.82
  Q 114.39 110.51 116.86 112.41
  Q 130.57 122.95 131.59 139.22
  Q 131.88 143.84 128.80 147.55
  C 126.44 150.39 115.46 155.08 120.70 159.26
  C 126.10 163.55 129.43 170.32 125.43 176.82
  A 0.46 0.46 0.0 0 1 124.59 176.67
  C 122.85 168.50 117.76 164.37 111.28 159.93
  A 2.22 2.22 0.0 0 1 111.19 156.33
  L 116.41 152.37
  Q 116.79 152.08 116.88 151.61
  Q 117.92 146.22 113.58 142.65
  C 105.19 135.76 96.31 129.90 91.25 119.53
  C 83.04 102.69 96.22 85.94 112.77 82.31
  C 126.96 79.19 142.88 88.25 156.73 81.21
  A 0.83 0.82 -12.4 0 0 157.18 80.51
  Q 157.35 74.09 161.80 69.52
  A 0.63 0.62 -57.3 0 0 161.58 68.50
  C 144.57 61.94 131.72 48.93 129.81 30.17
  A 0.39 0.39 0.0 0 1 130.33 29.77
  C 148.07 36.23 155.48 47.64 162.23 64.29
  A 0.51 0.50 27.5 0 0 163.19 63.99
  Q 156.43 34.98 128.09 26.03
  A 0.75 0.75 0.0 0 0 127.11 26.74
  Q 127.09 33.50 128.95 39.98
  A 0.24 0.24 0.0 0 1 128.50 40.16
  Q 122.92 29.45 121.01 17.48
  Q 120.77 15.97 122.23 16.46
  Q 153.06 26.88 163.76 56.36
  Q 165.42 60.93 166.91 65.57
  A 0.72 0.71 32.6 0 0 168.30 65.27
  Q 166.13 48.27 155.53 34.95
  Q 155.19 34.52 155.13 33.98
  Q 153.73 20.86 158.55 8.58
  A 0.62 0.61 29.9 0 1 159.50 8.33
  C 177.02 22.12 180.56 44.57 173.37 64.80
  Q 173.18 65.35 173.75 65.44
  C 182.21 66.77 185.22 71.80 190.13 77.38
  Q 190.49 77.78 190.58 78.31
  Q 191.04 80.74 192.41 82.85
  Q 192.70 83.30 192.48 83.79
  C 188.09 93.47 175.28 92.10 167.09 90.87
  Q 166.56 90.79 166.34 91.27
  Q 159.49 106.54 144.32 113.60
  A 0.21 0.21 0.0 0 0 144.45 113.99
  Z
  M 180.41 75.91
  C 178.69 72.66 173.64 72.80 171.58 75.42
  A 0.70 0.69 13.6 0 0 172.26 76.53
  Q 176.03 75.81 179.74 76.76
  A 0.59 0.59 0.0 0 0 180.41 75.91
  Z"
/>
<path fill="#000000" d="
  M 171.58 75.42
  C 173.64 72.80 178.69 72.66 180.41 75.91
  A 0.59 0.59 0.0 0 1 179.74 76.76
  Q 176.03 75.81 172.26 76.53
  A 0.70 0.69 13.6 0 1 171.58 75.42
  Z"
/>
<path fill="#fedb62" d="
  M 67.20 91.39
  C 72.97 90.28 83.12 93.43 83.90 100.53
  Q 84.39 105.10 84.47 109.89
  Q 84.48 110.41 83.95 110.48
  Q 68.54 112.54 65.31 97.72
  Q 64.58 94.41 66.34 91.94
  A 1.37 1.35 -77.4 0 1 67.20 91.39
  Z"
/>
</svg>
